<?xml version="1.0" encoding="UTF-8" standalone="no"?>
<svg
        xmlns="http://www.w3.org/2000/svg"
        version="1.0"
        id="svg2"
        height="550"
        width="242.5">
  <defs
          id="defs4" />
  <g
          transform="translate(41.500029,-1019.077)"
          id="layer1">
    <path
            id="abdomen"
            d="m 40.460789,1211.7285 c 0.686209,4.4233 0.948858,8.1725 0.93924,13.6022 -0.01429,8.0276 -0.298174,11.0167 -1.601043,16.8543 -1.81826,8.1468 -1.848015,8.3618 -1.890897,13.6807 -0.06422,7.9616 -0.493242,11.4989 -1.842169,15.195 -1.644207,4.5053 -2.345497,10.9698 -2.554832,23.5481 -0.06611,3.9727 -0.162798,7.3543 -0.215039,7.5149 -0.339602,1.043 1.517932,19.4988 2.856655,28.3826 0.181417,1.204 0.532463,3.6664 0.780221,5.4722 0.247782,1.8059 0.691286,4.5608 0.985858,6.1222 0.294537,1.5612 0.535669,3.173 0.535669,3.5816 0,0.4087 0.242385,2.1849 0.538675,3.9468 0.296261,1.762 0.738644,4.754 0.982859,6.6487 0.920024,7.1381 1.832667,12.2178 2.606133,14.5039 1.571442,4.6448 1.453981,3.7697 1.453981,10.835 0,3.5515 0.08565,8.0825 0.190244,10.0689 0.185567,3.5246 0.173887,3.696 -0.484379,7.1137 -0.837203,4.347 -1.252724,6.8727 -1.548029,9.4122 -0.950552,8.175 -1.002575,8.9158 -0.980295,13.8995 0.02078,4.6498 0.09862,5.6799 0.810135,10.7254 0.432923,3.0699 0.893369,6.616 1.023483,7.8801 0.13011,1.264 0.42506,3.9727 0.65538,6.0194 0.23032,2.0466 0.626947,5.8388 0.881105,8.4273 0.254194,2.5882 0.85047,7.5625 1.32529,11.0538 0.942759,6.9312 1.02897,8.5953 0.538674,10.4039 -1.385076,5.1095 -1.466718,5.5513 -1.295794,6.9976 0.31975,2.7055 0.178841,3.3684 -1.364622,6.4191 -0.952213,1.8822 -1.495913,3.2533 -1.648938,4.1589 -0.155978,0.9232 -0.50912,1.802 -1.114957,2.7741 -1.392039,2.2339 -1.819873,2.8295 -3.458601,4.8156 -0.844288,1.0233 -1.931138,2.6486 -2.41547,3.6117 -0.484325,0.9631 -1.107989,1.9973 -1.385999,2.2984 -0.277984,0.3008 -0.659264,0.7934 -0.846909,1.0944 -0.479367,0.7688 -1.685271,6.1989 -1.685271,7.5883 0,1.231 0.735467,3.2272 1.387291,3.7656 0.22346,0.1846 0.363819,0.6238 0.363819,1.1389 0,1.2099 0.407066,1.9584 1.145315,2.106 0.438444,0.087 0.712668,0.336 0.920438,0.8331 0.355422,0.8507 1.109855,1.4225 1.877646,1.4225 0.44491,0 0.606516,0.1479 0.772095,0.7066 0.249647,0.8424 1.42689,1.701 2.332105,1.701 0.667477,0 1.921088,-0.5475 2.200414,-0.961 0.09032,-0.1336 0.272563,-0.6367 0.404869,-1.1183 0.340671,-1.2401 1.70687,-3.6117 2.08071,-3.6117 0.247386,0 0.213591,0.1972 -0.160749,0.9303 -0.651647,1.2762 -0.822564,3.6655 -0.317205,4.4367 0.897656,1.3699 2.788375,1.7744 5.095119,1.0894 0.942493,-0.28 1.223997,-0.5007 1.88534,-1.4775 0.427633,-0.6316 0.922121,-1.6504 1.09873,-2.2633 0.176593,-0.613 0.522083,-1.5084 0.767809,-1.99 0.245721,-0.4818 0.705376,-1.901 1.021341,-3.1539 0.315941,-1.2528 0.67075,-2.5925 0.78876,-2.9772 0.117996,-0.3847 0.201546,-2.1084 0.185537,-3.8305 -0.03365,-3.6142 0.286872,-5.9997 0.994402,-7.3995 0.273811,-0.5417 0.764962,-1.8222 1.09145,-2.8455 0.520193,-1.6305 0.615976,-2.3885 0.771664,-6.1289 0.208207,-5.0024 0.504379,-6.6493 2.184619,-12.1483 0.565471,-1.8507 0.490455,-3.3672 -0.324918,-6.5816 -0.449144,-1.7706 -0.548937,-2.6899 -0.548937,-5.0571 0,-3.5193 0.519773,-9.3971 1.119238,-12.6578 0.243472,-1.3243 0.525337,-2.9988 0.62631,-3.7213 0.100979,-0.7221 0.380405,-2.2489 0.621178,-3.3927 0.240784,-1.1436 0.601479,-2.9659 0.801164,-4.0493 0.199699,-1.0835 0.743746,-3.546 1.209447,-5.4722 2.708454,-11.2029 3.079376,-13.3612 3.080245,-17.9339 0.0012,-1.7975 -0.102645,-4.654 -0.229151,-6.3477 -1.134462,-15.1929 -1.142706,-15.8246 -0.247959,-19.0013 0.347905,-1.2353 1.046083,-3.2309 1.55189,-4.4347 0.505813,-1.2038 1.354862,-3.5187 1.886621,-5.1439 1.104961,-3.3771 1.389181,-5.457 1.390711,-10.1783 0.0029,-5.3411 0.457742,-15.6773 0.791759,-17.9487 0.177034,-1.204 0.419519,-3.4944 0.539099,-5.0897 0.260873,-3.4803 1.473338,-11.1335 2.505243,-15.8141 0.411376,-1.8661 1.008994,-5.3628 1.328296,-7.7706 0.319265,-2.4077 0.616624,-4.5001 0.660509,-4.6493 0.0604,-0.2054 0.22793,-0.2139 0.689575,-0.036 0.361102,0.1387 1.163076,0.1756 1.967005,0.091 1.094041,-0.1154 1.646392,-0.3302 2.845541,-1.106 1.223283,-0.7912 1.529293,-0.9077 1.719472,-0.6562 0.127238,0.1684 0.456862,2.0122 0.732331,4.0979 0.307847,2.3304 0.991669,5.8165 1.774192,9.0453 1.649321,6.805 4.054488,18.4508 4.588527,22.2172 0.230445,1.6251 0.525442,4.6786 0.655804,6.7854 0.130374,2.1068 0.331537,4.7171 0.446765,5.8006 0.115216,1.0835 0.211129,3.3525 0.21332,5.0421 0.003,2.1516 0.140064,3.8186 0.458723,5.5633 0.499093,2.7322 2.109531,7.5678 3.320945,9.9718 0.425164,0.8437 1.289488,2.8629 1.920828,4.4871 l 1.147877,2.9533 0.19025,5.4723 c 0.774354,22.2859 0.897294,23.5763 2.829724,29.7341 2.27145,7.238 2.54423,8.2355 3.4556,12.6206 0.6483,3.1195 2.36662,12.6572 2.97722,16.5261 1.20954,7.664 1.28393,12.536 0.24241,15.8694 -0.72748,2.3284 -0.62775,3.6102 0.4707,6.0485 0.48383,1.074 0.83399,2.2575 0.93028,3.1447 0.0849,0.7826 0.50405,2.3586 0.93155,3.5023 0.59075,1.5805 0.81438,2.5784 0.93155,4.1589 0.0848,1.1437 0.25006,2.4733 0.36723,2.9549 0.11718,0.4816 0.35036,1.4666 0.51816,2.1889 0.1678,0.7224 0.65513,2.3477 1.08333,3.6117 0.705,2.0812 0.79948,2.6498 0.99782,6.0194 0.2957,5.0238 0.98538,9.2851 1.75366,10.8351 0.32823,0.662 0.77368,1.844 0.9897,2.6266 0.21605,0.7824 0.61121,1.7674 0.87812,2.1889 0.67357,1.0634 2.0265,2.3193 2.93915,2.7288 1.63872,0.7349 4.93078,-0.1863 5.18363,-1.4506 l 0.12871,-0.6425 0.47709,0.4479 c 1.11298,1.0457 4.07741,0.2443 4.23925,-1.1457 0.0621,-0.5331 0.1575,-0.5947 0.91787,-0.5947 1.06035,0 1.53008,-0.5875 1.53008,-1.9135 0,-0.8848 0.0311,-0.9328 0.52799,-0.8081 0.82516,0.2073 1.43602,-0.5503 1.46765,-1.8203 0.0401,-1.6098 0.25081,-2.2354 0.84991,-2.5257 0.31348,-0.152 0.80108,-0.7793 1.14188,-1.469 0.5318,-1.0761 0.59542,-1.4478 0.59939,-3.5022 0.006,-3.1033 -0.53852,-5.0291 -1.8755,-6.6312 -0.28078,-0.3365 -0.69835,-1.0358 -0.92772,-1.5544 -0.50988,-1.1526 -3.13529,-5.0585 -4.50217,-6.6975 -0.55144,-0.6613 -1.00253,-1.2935 -1.00253,-1.4053 0,-0.1117 -0.13201,-0.3588 -0.29327,-0.5489 -0.16125,-0.19 -0.52484,-0.9365 -0.808,-1.6587 -0.8727,-2.2262 -2.69453,-5.6256 -3.75358,-7.0044 l -1.00852,-1.3133 -0.1244,-3.3928 c -0.12843,-3.505 -0.55594,-5.7217 -1.33258,-6.907 -0.20659,-0.3153 -0.32614,-0.6229 -0.26547,-0.6836 0.0607,-0.061 -0.03,-0.5078 -0.20137,-0.9935 -0.5003,-1.4179 -0.40621,-5.9477 0.33774,-16.2597 0.12159,-1.6855 0.27042,-4.7882 0.33089,-6.895 0.18673,-6.5063 0.54618,-13.3155 0.87812,-16.6355 0.85639,-8.5655 1.02209,-17.1277 0.43222,-22.3266 -0.42263,-3.7246 -1.88254,-11.1198 -2.87377,-14.556 -1.62084,-5.6194 -1.81823,-6.7294 -2.06233,-11.6011 -0.43208,-8.6241 0.0956,-16.7644 1.34796,-20.7944 0.22445,-0.7222 0.56156,-2.0457 0.74901,-2.9408 0.49142,-2.3472 2.24046,-19.2036 2.73823,-26.3902 0.23347,-3.3707 0.67115,-8.0495 0.97303,-10.3971 0.63001,-4.899 1.72729,-16.4315 2.11448,-22.2248 0.23164,-3.4657 0.2174,-4.374 -0.11628,-7.4422 -0.20901,-1.9221 -0.51068,-4.3318 -0.67034,-5.3552 -0.41693,-2.6725 -0.71661,-5.1896 -0.99056,-8.3177 -0.21059,-2.4046 -0.51329,-4.0702 -1.53263,-8.4271 -0.14084,-0.602 -0.2498,-1.3832 -0.24197,-1.7358 0.008,-0.3526 -0.0938,-0.7712 -0.22574,-0.9302 -0.13198,-0.159 -0.18841,-0.289 -0.12526,-0.289 0.0632,0 -0.0325,-0.4679 -0.21291,-1.0397 -0.18033,-0.5719 -0.35876,-1.3353 -0.3963,-1.6964 -0.11619,-1.1173 -0.78179,-4.3456 -1.0286,-4.9883 -0.1289,-0.3356 -0.41789,-0.7085 -0.64214,-0.8285 -0.29714,-0.159 -0.40918,-0.4683 -0.41297,-1.1406 -0.004,-0.5074 -0.10182,-1.3166 -0.21974,-1.7982 -0.11792,-0.4814 -0.30816,-3.535 -0.42281,-6.7855 -0.26942,-7.6376 -0.57434,-9.9849 -2.60144,-20.0282 -1.52777,-7.5695 -1.3425,-13.8387 0.74046,-25.0627 0.0638,-0.3439 0.10747,-0.6453 0.17443,-1.0162 z"
            style="fill:#e3bba3;fill-opacity:0.98830411;stroke-width:0.21888801" />
    <path
            id="chest"
            d="m 40.460789,1211.7285 h 78.399101 c 0.35479,-1.9663 0.75419,-4.247 0.92429,-5.3864 0.20217,-1.3543 0.45441,-2.4624 0.56046,-2.4624 0.10603,0 0.19281,0.135 0.19281,0.3 0,1.16 0.79006,7.1992 1.32189,10.1053 0.61787,3.3761 1.97238,9.0883 3.19056,13.4535 0.51969,1.8622 0.58503,2.5023 0.62715,6.1287 0.0288,2.4835 0.15796,4.4728 0.33388,5.144 0.44298,1.6899 2.56315,7.4954 3.31752,9.0838 1.29165,2.7198 1.90808,4.3026 4.00541,10.2878 2.61371,7.4588 3.19135,8.9561 6.24942,16.1976 1.34724,3.1904 2.98907,7.2156 3.64885,8.9454 0.65977,1.7298 1.93836,4.8326 2.84084,6.8949 3.33982,7.6326 4.88992,11.3247 4.88992,11.6461 0,0.1814 0.22162,0.7444 0.49249,1.2513 0.46762,0.8749 0.49013,1.1356 0.44504,5.1558 -0.0465,4.1516 0.27752,7.3002 1.04528,10.1515 0.12264,0.4554 0.24397,1.311 0.26934,1.9011 0.0254,0.5901 0.1102,1.0333 0.18854,0.985 0.0783,-0.049 0.27471,0.4288 0.4365,1.0606 0.38095,1.4874 0.38045,5.8512 -0.004,9.3571 -0.38804,3.5634 -0.26404,6.1489 0.33346,6.9493 0.89851,1.2035 2.55652,1.004 2.89555,-0.3485 0.21211,-0.8461 0.49983,-3.5633 0.5716,-5.3969 0.0237,-0.602 0.20431,-1.696 0.40186,-2.4309 0.19755,-0.735 0.37515,-2.1878 0.3946,-3.2286 0.0193,-1.0407 0.10707,-1.8921 0.19451,-1.8921 0.59496,0 0.63864,0.8396 0.51773,9.8747 -0.11772,8.797 -0.10263,9.3178 0.27788,9.7781 0.58923,0.7125 2.20326,0.8896 2.90839,0.3185 0.50948,-0.4125 0.53387,-0.5553 0.59895,-3.4702 0.0755,-3.3811 0.39185,-6.5863 0.76311,-7.7354 0.16306,-0.5047 0.19532,-1.7752 0.0975,-3.8251 -0.16678,-3.4935 0.15017,-3.8899 0.53012,-0.6629 0.46737,3.969 0.57143,6.2273 0.50405,10.935 -0.0742,5.182 -0.0121,5.5512 1.04057,6.1788 0.76417,0.4556 2.05443,0.2039 2.73865,-0.5344 0.49574,-0.5349 0.5233,-0.7141 0.5233,-3.3867 0,-1.5522 0.12312,-3.7791 0.2736,-4.9481 0.3622,-2.814 0.2907,-7.0458 -0.1475,-8.7367 -0.39124,-1.5099 -0.45183,-2.9101 -0.1261,-2.9101 0.12038,0 0.21888,0.333 0.21888,0.74 0,0.407 0.23469,1.3674 0.52157,2.1341 0.72783,1.9455 0.86823,2.8711 1.23466,8.1489 0.29558,4.2577 0.48899,4.932 1.56513,5.4581 0.73469,0.3592 0.87198,0.3644 1.59463,0.062 1.28928,-0.5387 1.43257,-1.1708 1.4275,-6.3037 -0.004,-4.626 -0.0445,-5.0454 -0.96621,-10.24 -0.90637,-5.108 -0.99949,-5.7794 -0.99949,-7.1958 v -1.345 l 2.02472,1.9845 c 2.47317,2.4243 4.37057,3.4759 6.59527,3.6544 1.80888,0.1453 2.54329,-0.2375 2.54329,-1.3253 0,-0.6321 -0.13939,-0.7992 -1.20559,-1.4454 -1.37186,-0.8314 -2.30474,-1.812 -2.97594,-3.1277 -0.2548,-0.4995 -0.92724,-1.4079 -1.49417,-2.0188 -1.41115,-1.5201 -2.85537,-3.3735 -3.55008,-4.5556 -0.35747,-0.6081 -1.82596,-2.0753 -3.83054,-3.8274 -1.78798,-1.5628 -3.84966,-3.4822 -4.58168,-4.2649 -1.47482,-1.5769 -1.97472,-2.6771 -3.26024,-7.1773 -0.39549,-1.3843 -1.0647,-3.5021 -1.48732,-4.706 -1.14998,-3.2757 -3.36686,-10.2792 -3.85363,-12.1743 -0.42306,-1.6469 -0.88478,-4.3336 -1.33043,-7.7445 -0.42765,-3.2733 -1.11957,-7.8671 -1.97855,-13.1332 -0.47127,-2.8895 -1.15475,-7.2726 -1.51896,-9.7405 -0.36419,-2.4681 -0.865,-5.3245 -1.11282,-6.3477 -0.74212,-3.0642 -3.43932,-11.0678 -4.79459,-14.2278 -1.5373,-3.5845 -1.63109,-3.8396 -2.17135,-5.91 -0.76781,-2.9425 -1.43462,-7.6748 -2.67625,-18.9895 -0.69691,-6.3504 -0.91077,-11.4 -0.96148,-22.7088 -0.0491,-10.9658 -0.088,-12.0492 -0.53991,-14.9938 -1.16764,-7.6094 -2.57528,-12.2581 -4.50972,-14.8933 -1.01215,-1.3788 -3.50349,-3.4385 -6.66967,-5.5141 -2.75223,-1.8042 -3.43083,-2.1446 -7.33274,-3.678 -4.91623,-1.9318 -12.95812,-5.8823 -21.43777,-10.5313 -0.39932,-0.219 -0.78051,-0.4678 -1.15771,-0.7182 H 60.639694 c -0.557907,0.4799 -1.181418,0.9676 -1.938785,1.4671 -3.083256,2.0336 -15.091986,7.8039 -20.175751,9.6948 -1.183041,0.4401 -2.692575,1.1241 -3.354716,1.5199 -2.146938,1.2835 -2.890613,1.6622 -4.578263,2.3317 -3.105299,1.2318 -5.241987,2.8691 -6.809897,5.2191 -0.820066,1.2291 -1.906255,4.5639 -2.923345,8.9736 -1.766185,7.6572 -2.139965,12.0372 -2.05422,24.0775 0.05916,8.3049 0.0297,8.7269 -1.466794,20.9039 -0.295914,2.4078 -0.746244,6.3477 -1.000822,8.7555 -0.6872,6.4994 -1.437767,9.5912 -3.320945,13.6806 -0.360358,0.7824 -1.031154,2.5062 -1.49032,3.8305 -0.459159,1.3242 -1.031746,2.9496 -1.272707,3.6116 -0.9962928,2.7377 -2.2308354,7.5747 -2.8771866,11.2727 -0.3787332,2.167 -0.9249612,5.0236 -1.2137052,6.3479 -0.585759,2.6863 -1.218464,6.3262 -2.397093,13.7898 -1.706239,10.8048 -2.328408,13.8321 -3.51930205,17.122 -0.410031,1.1328 -0.895172,2.9205 -1.077769,3.973 -0.18260395,1.0525 -0.53188495,2.6464 -0.77636995,3.5424 -0.244481,0.8959 -0.632924,2.3188 -0.86315,3.1614 -1.213392,4.4413 -1.531057,5.7462 -1.534783,6.3033 -0.0041,0.647 -0.396857,1.5621 -1.404817,3.2747 -0.581698,0.9884 -4.019555,4.0878 -6.3875142,5.7591 -0.523529,0.3696 -1.159515,0.9358 -1.413368,1.2587 -0.253852,0.3227 -0.587472,0.5869 -0.741313,0.5869 -0.284551,0 -0.451694,0.196 -2.150398,2.5193 -0.528993,0.7236 -2.013515,2.3723 -3.299147,3.6642 -1.285639,1.292 -2.337655,2.4494 -2.337655,2.5725 0,0.2065 -0.474714,0.4535 -2.681381,1.3937 -0.649042,0.2765 -0.820829,0.469 -0.820829,0.92 0,0.9742 0.762938,1.3914 2.561251,1.3997 2.672782,0.013 4.555714,-0.6368 6.121168,-2.1097 1.557224,-1.4655 3.758595,-3.3553 3.908349,-3.3553 0.238853,0 -0.01966,4.2314 -0.515154,8.4271 -0.255872,2.1672 -0.552853,4.6789 -0.659662,5.5818 -0.106795,0.9028 -0.133621,3.8413 -0.05942,6.5298 l 0.135099,4.8884 0.714811,0.6385 c 0.758343,0.6776 1.694984,0.8285 2.49198,0.402 0.9100942,-0.4871 1.0615242,-1.4184 1.0615242,-6.5291 0,-2.9703 0.08372,-4.8611 0.218889,-4.9447 0.120384,-0.075 0.218889,-0.4191 0.218889,-0.7661 0,-0.3469 0.100312,-0.693 0.222727,-0.7685 0.148254,-0.092 0.16653,0.2878 0.05474,1.1362 -0.216628,1.6438 -0.206931,5.2311 0.02864,10.5767 0.167693,3.8054 0.235327,4.3204 0.625022,4.7494 0.845506,0.9307 2.736832,0.904 3.360278,-0.048 0.27495,-0.4197 0.352305,-1.5667 0.423239,-6.2744 0.04772,-3.1682 0.193273,-6.696 0.323636,-7.8397 0.130363,-1.1436 0.294909,-2.695 0.365519,-3.4474 0.07061,-0.7524 0.21332,-1.3681 0.317223,-1.3681 0.263583,0 0.237967,1.3394 -0.0637,3.3213 -0.211271,1.3882 -0.191419,2.2429 0.114159,4.925 0.294886,2.5884 0.324983,3.6884 0.150057,5.4342 -0.341475,3.4078 -0.31472,3.7652 0.311648,4.1756 0.830163,0.5439 2.03797595,0.4573 2.68779795,-0.1925 0.692751,-0.6927 0.838325,-2.2155 1.028605,-10.7687 0.075,-3.3708 0.18961705,-6.4326 0.25479505,-6.8039 0.06517,-0.3712 0.344953,-0.9593 0.622034,-1.3068 0.732864,-0.9191 1.0968,-0.4803 1.522815,1.8379 0.193734,1.0541 0.543186,2.5848 0.77679,3.4017 0.233609,0.8168 0.639819,2.8596 0.902487,4.5393 0.531306,3.3976 0.878678,4.1324 1.954174,4.1324 0.349575,0 0.9008043,-0.2352 1.2423669,-0.5298 0.6136542,-0.5288 0.6141627,-0.5312 0.5527755,-3.0096 -0.033777,-1.3642 -0.248337,-3.4651 -0.4766787,-4.6689 -1.4999217,-7.908 -1.4773887,-7.4181 -0.5600448,-12.2577 1.515357,-7.9947 1.4568273,-7.3917 1.0952937,-11.2727 -0.090746,-0.9741 -0.049959,-2.3093 0.1004661,-3.2835 0.1394451,-0.9029 0.3049587,-2.0848 0.3676635,-2.6265 0.062694,-0.5418 0.1958589,-1.1821 0.2958354,-1.4229 0.3056724,-0.7361 1.6557042,-4.5577 3.5184572,-9.9594 2.911749,-8.4434 4.348805,-12.0448 7.379773,-18.4959 2.298111,-4.8913 5.152114,-12.0969 8.192476,-20.6849 0.684555,-1.9337 2.08146,-5.3793 2.795533,-6.8951 0.491465,-1.0431 2.548425,-7.0269 2.896855,-8.4272 0.134803,-0.5418 0.264121,-2.8071 0.28728,-5.0344 0.03791,-3.6443 0.100153,-4.2574 0.625033,-6.1288 1.485945,-5.2979 3.432986,-13.3546 3.767693,-15.5902 0.561408,-3.7501 0.683245,-3.6877 1.384729,0.7058 0.02244,0.1402 0.03543,0.268 0.05686,0.4066 z"
            style="fill:#e3bba3;fill-opacity:0.98830411;stroke-width:0.21888801" />
    <path
            id="head"
            d="m 60.640378,1129.8015 h 39.818812 c -1.535616,-1.0197 -2.844785,-2.243 -3.472286,-3.3136 -0.622501,-1.0623 -1.329264,-4.2484 -1.512553,-6.8182 -0.238652,-3.3461 -0.262367,-6.3108 -0.05557,-6.9569 0.229429,-0.7168 0.283122,-0.9624 1.200454,-5.4722 l 0.623321,-3.0644 0.648541,-0.019 c 1.200432,-0.033 1.339268,-0.089 2.089267,-0.8398 0.469326,-0.4695 1.011936,-1.4274 1.456986,-2.5718 0.74059,-1.9042 1.80795,-6.2547 1.80795,-7.369 0,-1.053 -0.84197,-3.4648 -1.47022,-4.2115 l -0.58356,-0.6935 0.37365,-1.0521 c 0.47518,-1.338 0.7795,-3.6158 1.03673,-7.7595 0.25283,-4.0729 0.24634,-3.7864 0.1415,-6.0193 -0.10421,-2.2196 -0.45053,-4.1579 -0.89008,-4.9819 -0.17604,-0.3298 -0.44618,-0.9445 -0.60024,-1.3658 -0.15407,-0.4214 -0.60428,-1.2095 -1.00039,-1.7512 -3.251071,-4.4464 -4.930696,-6.2284 -6.747899,-7.1587 -0.60194,-0.3082 -1.31713,-0.7812 -1.589085,-1.0509 -0.271939,-0.2697 -0.9395,-0.615 -1.483477,-0.7673 -0.543995,-0.1523 -1.207806,-0.5141 -1.475351,-0.8037 -0.802311,-0.8688 -1.643582,-1.1995 -3.032792,-1.1928 -0.875319,0 -1.248497,-0.071 -1.149596,-0.2308 0.100562,-0.1629 -0.08601,-0.1892 -0.595957,-0.085 -0.408378,0.084 -1.038088,0.1769 -1.399256,0.2064 -0.361166,0.03 -0.804417,0.1138 -0.984996,0.1872 -0.807701,0.3287 -1.64589,0.3237 -2.15938,-0.013 -0.403902,-0.2647 -0.566528,-0.2871 -0.633152,-0.087 -0.124329,0.373 -0.790253,0.3366 -2.056777,-0.1133 -0.709616,-0.252 -1.130257,-0.3062 -1.232967,-0.1586 -0.08574,0.1232 -0.629724,0.2389 -1.208563,0.257 -0.57888,0.018 -1.189932,0.1471 -1.358227,0.2868 -0.168308,0.1397 -0.404628,0.1928 -0.524986,0.1184 -0.120349,-0.075 -0.544964,0 -0.943533,0.1676 -0.398551,0.1666 -1.20039,0.3742 -1.781886,0.4614 -0.888582,0.1332 -1.040244,0.2239 -0.95037,0.5677 0.0824,0.315 -0.05084,0.4465 -0.580565,0.572 -0.378238,0.09 -0.81099,0.14 -0.961482,0.112 -0.150487,-0.029 -0.273604,0.041 -0.273604,0.1539 0,0.1126 -0.221628,0.2613 -0.492505,0.3305 -0.671788,0.1714 -2.535274,1.6021 -3.46715,2.6621 -1.910388,2.1732 -3.808412,4.6287 -4.454273,5.7625 -0.387662,0.6805 -1.017142,1.7408 -1.398846,2.3559 -0.381711,0.6154 -0.693856,1.38 -0.693856,1.6995 0,0.3194 -0.09356,0.7519 -0.20777,0.9611 -0.114242,0.209 -0.267432,0.8456 -0.340736,1.4145 -0.07332,0.5692 -0.226418,1.0919 -0.339863,1.162 -0.270632,0.1673 -0.26579,0.9202 0.0063,1.0137 0.135737,0.047 0.124063,0.8459 -0.03206,2.2167 -0.173096,1.5196 -0.176403,2.2842 -0.01146,2.6266 0.127925,0.2657 0.339415,1.746 0.470267,3.2897 0.130852,1.5438 0.324545,2.972 0.430507,3.1739 0.105971,0.202 0.260248,0.7735 0.342439,1.2701 0.12908,0.7797 0.08006,0.9591 -0.357826,1.3147 -0.819164,0.6653 -1.0461,1.0521 -1.387716,2.3637 -0.45378,1.7422 -0.406676,2.8212 0.247533,5.6475 0.762169,3.2927 1.944377,5.8379 3.065274,6.5996 0.463742,0.315 0.962618,0.5733 1.108127,0.5733 0.398733,0 0.483806,0.2349 0.848191,2.335 0.710796,4.0966 1.431513,6.6423 2.755332,9.7354 0.599501,1.4007 0.618675,1.556 0.520724,4.2158 -0.111691,3.0336 -0.604236,6.534 -1.07905,7.6704 -0.313951,0.7513 -1.021499,1.5757 -2.020007,2.4347 z"
            style="fill:#e3bba3;fill-opacity:0.98830411;stroke-width:0.21888801" />
  </g>
</svg>
