<?xml version="1.0" encoding="UTF-8" standalone="no"?>
<svg
  xmlns="http://www.w3.org/2000/svg"
  version="1.1"
  xml:space="preserve"
  viewBox="0 0 206 550"
  height="100%"
  width="100%"
  preserveAspectRatio="xMinYMin meet"
>
  <g transform="translate(-21 550) scale(1.333333) scale(1 -1) ">
    <path
      d="m 52.063787,336.34232 c -13.053,0 -23.674,-5.092 -27.4265,-9.4335 -6.4695,-7.4955 -6.4505,-16.397 -6.251,-19.532 v -127.167 c 0,-6.3745 5.035,-11.4475 11.419,-11.4475 6.365,0 11.4475,5.1775 11.4475,11.4475 v 105.222 l 104.139003,0.095 v -105.2315 c 0,-6.365 5.035,-11.4095 11.419,-11.4095 6.3745,0 11.4475,5.149 11.4475,11.4095 v 127.0815 c 0.304,3.135 0.209,12.1505 -6.27,19.532 -3.7335,4.2465 -14.383,9.4335 -27.436,9.4335 H 93.360287 Z"
      fill="#32fdff"
      id="arms"
    />
    <path
      d="m 51.731287,175.50732 h 0.095 v -149.625 c 0,-10.013 8.189,-18.2020006 18.202,-18.2020006 10.013,0 18.2115,8.1890006 18.2115,18.2020006 v 149.625 h 5.1395 5.0635 v -149.625 c 0,-10.013 8.189003,-18.2020006 18.202003,-18.2020006 10.013,0 18.2115,8.1890006 18.2115,18.2020006 v 149.72 h 0.095 z"
      fill="#ff2600"
      id="legs"
    />
    <path
      d="m 58.913287,377.89532 c 0,19.0475 15.4375,34.485 34.485,34.485 19.047503,0 34.485003,-15.4375 34.485003,-34.485 0,-19.0475 -15.4375,-34.485 -34.485003,-34.485 -19.0475,0 -34.485,15.4375 -34.485,34.485 z"
      fill="#00f900"
      id="head"
    />
    <path
      d="m 51.845287,175.60232 h 82.992003 v 80.256 H 51.845287 Z"
      fill="#fe9301"
      id="abdomen"
    />
    <path
      id="eyes"
      transform="matrix(0.95,0,0,0.95,-506.98271,-154.76968)"
      d="m 612.96,564.36 c -4.24,0 -7.68,-3.44 -7.68,-7.68 v 0 c 0,-4.24 3.44,-7.68 7.68,-7.68 h 37.92 c 4.24,0 7.68,3.44 7.68,7.68 v 0 c 0,4.24 -3.44,7.68 -7.68,7.68 z"
      fill="#00a642"
    />
    <path
      d="m 85.475287,369.54482 c 0,4.199 3.4105,7.6095 7.6095,7.6095 h 0.513 c 4.199,0 7.609503,-3.4105 7.609503,-7.6095 v -18.867 c 0,-4.199 -3.410503,-7.6095 -7.609503,-7.6095 h -0.513 c -4.199,0 -7.6095,3.4105 -7.6095,7.6095 z"
      fill="#d4fca9"
      id="nose"
    />
    <g transform="matrix(0.95,0,0,0.95,-506.98271,-154.56703)" id="hands">
      <path
        fill="#0052ff"
        d="m 552.96,364.19 c 0,6.7 5.43,12.13 12.13,12.13 h 0.22 c 6.7,0 12.13,-5.43 12.13,-12.13 v -11.74 c 0,-6.7 -5.43,-12.13 -12.13,-12.13 h -0.22 c -6.7,0 -12.13,5.43 -12.13,12.13 z"
      />
      <path
        fill="#0052ff"
        d="m 686.4,364.19 c 0,6.7 5.43,12.13 12.13,12.13 h 0.22 c 6.7,0 12.13,-5.43 12.13,-12.13 v -11.74 c 0,-6.7 -5.43,-12.13 -12.13,-12.13 h -0.22 c -6.7,0 -12.13,5.43 -12.13,12.13 z"
      />
    </g>
    <g transform="matrix(0.95,0,0,0.95,-506.93205,-154.66835)" id="feet">
      <path
        fill="#7b0c00"
        d="m 637.56,195.42 c 0,10.5 8.52,19.02 19.02,19.02 v 0 c 10.5,0 19.02,-8.52 19.02,-19.02 v -5.4 c 0,-10.5 -8.52,-19.02 -19.02,-19.02 v 0 c -10.5,0 -19.02,8.52 -19.02,19.02 z"
      />
      <path
        fill="#7b0c00"
        d="m 588.24,195.42 c 0,10.5 8.52,19.02 19.02,19.02 v 0 c 10.5,0 19.02,-8.52 19.02,-19.02 v -5.4 c 0,-10.5 -8.52,-19.02 -19.02,-19.02 v 0 c -10.5,0 -19.02,8.52 -19.02,19.02 z"
      />
    </g>
    <path
      d="m 51.845287,255.85832 h 82.992003 v 80.484 H 51.845287 Z"
      fill="#f7ba01"
      id="chest"
    />
    <path
      d="m 81.713287,191.21082 c 0,6.365 5.1585,11.5235 11.5235,11.5235 h 0.209 c 6.365,0 11.523503,-5.1585 11.523503,-11.5235 v -11.153 c 0,-6.365 -5.158503,-11.5235 -11.523503,-11.5235 h -0.209 c -6.365,0 -11.5235,5.1585 -11.5235,11.5235 z"
      fill="#5e5e5e"
      id="pelvis"
    />
  </g>
</svg>
